<svg width="378" height="300" viewBox="0 0 378 300" fill="none" xmlns="http://www.w3.org/2000/svg">
<path d="M191.092 75.1071H191.24L191.388 75.0998C220.879 73.6434 235.621 88.2104 239.161 102.688C242.784 117.508 235.361 133.6 217.142 138.24L217.529 149.954C240.685 154.246 250.982 173.73 247.589 191.55C245.892 200.463 240.739 209.052 231.75 215.181C222.752 221.317 209.553 225.218 191.502 223.983L191.297 223.969H191.092H137V75.1071H191.092ZM157.348 83.9082H151.348V89.9082V137.057V143.057H157.348H191.092C212.293 143.057 225.165 128.991 225.69 113.689C225.949 106.153 223.142 98.5594 217.101 92.8974C211.054 87.2302 202.226 83.9082 191.092 83.9082H157.348ZM157.348 150.934H151.348V156.934V208.706V214.706H157.348H190.861C216.841 216.659 232.698 201.123 233.145 183.395C233.364 174.739 229.771 166.085 222.387 159.87C215.039 153.683 204.391 150.266 190.94 150.934H157.348Z" fill="#7234BA" stroke="#7234BA" stroke-width="12"/>
<path d="M76.0764 8.00001C76.0793 8.00001 76.082 8.00002 76.0844 8.00003L76.1531 8.00205H76.2707H299.55C299.632 8.01183 299.726 8.02348 299.834 8.03709C300.297 8.0958 300.99 8.19058 301.854 8.32933C303.593 8.60856 305.97 9.0571 308.534 9.73004C314.141 11.2016 318.815 13.2923 320.913 15.579C322.495 17.304 324.148 20.775 325.48 24.719C326.093 26.5315 326.555 28.189 326.863 29.3916C326.976 29.8343 327.067 30.2104 327.136 30.5039C327.464 66.6031 330.225 94.3258 337.248 113.612C340.828 123.444 345.682 131.568 352.324 137.467C357.246 141.84 362.898 144.763 369.193 146.349V152.82C364.027 154.438 359.098 156.766 354.565 160.177C348.166 164.992 343.013 171.619 339 180.428C331.16 197.637 327.375 223.879 327.13 263.672C327.125 263.751 327.117 263.859 327.106 263.995C327.076 264.359 327.024 264.915 326.94 265.621C326.771 267.041 326.477 269.017 325.981 271.213C324.929 275.868 323.21 280.407 320.788 283.176C318.599 285.677 313.796 288.041 308.183 289.81C305.6 290.624 303.205 291.203 301.455 291.579C300.584 291.765 299.886 291.899 299.418 291.983C299.386 291.989 299.354 291.995 299.324 292H77.1224C76.6874 291.902 76.0716 291.757 75.3174 291.565C73.675 291.147 71.4211 290.514 68.9753 289.662C63.7015 287.825 58.9889 285.452 56.706 282.997C54.3187 280.429 52.3099 275.821 50.8874 270.954C50.2206 268.673 49.7568 266.6 49.4612 265.102C49.3192 264.381 49.2179 263.803 49.1529 263.411C50.0186 220.714 45.3314 193.955 36.7006 177.144C32.2733 168.52 26.7708 162.438 20.4574 158.269C16.3902 155.583 12.1703 153.812 8 152.615V146.468C25.8183 142.027 36.6065 125.687 42.5469 107.866C49.3874 87.3447 51.0138 61.8767 49.1246 39.6961C49.1229 39.6432 49.1208 39.5625 49.1194 39.4557C49.1158 39.1684 49.1176 38.6952 49.1461 38.067C49.2035 36.8057 49.3674 34.9502 49.8 32.739C50.6709 28.2877 52.5809 22.6354 56.6752 17.4248C60.4411 12.6322 65.2674 10.2572 69.3615 9.07452C71.4028 8.48485 73.1892 8.21534 74.4312 8.09444C75.0478 8.03441 75.5171 8.01228 75.8004 8.00431C75.9416 8.00034 76.0352 7.99993 76.0764 8.00001Z" stroke="#7234BA" stroke-width="16"/>
</svg>
