<svg width="63" height="50" viewBox="0 0 63 50" fill="none" xmlns="http://www.w3.org/2000/svg">
<path fill-rule="evenodd" clip-rule="evenodd" d="M6.82781 6.70291C7.44155 13.8677 5.75377 22.9586 0 23.2668V26.5025C3.68242 27.1187 7.13468 29.7381 6.82781 43.9908C6.82781 43.9908 7.2064 46.7428 8.43887 48.074C9.67134 49.4052 12.6583 50 12.6583 50H49.7893C49.7893 50 52.9929 49.5041 54.2389 48.074C55.4849 46.6439 55.6198 43.9908 55.6198 43.9908C55.6965 30.7396 58.1515 27.4268 62.6011 26.5025V23.2668C57.461 22.8044 55.7163 17.0741 55.6198 4.93097C55.6198 4.93097 55.1643 2.7084 54.2389 1.69525C52.9827 0.319844 49.7893 0.00034202 49.7893 0.00034202H12.6583C12.6583 0.00034202 10.0499 -0.0766653 8.36215 2.08033C6.67438 4.23733 6.82781 6.70291 6.82781 6.70291ZM21.6342 11.5564V38.3667H31.6074C44.2955 39.2385 45.009 25.6917 36.1766 24.0476C43.369 22.2081 42.1762 11.0323 31.6074 11.5564H21.6342ZM31.6074 26.1942C39.8161 25.7661 39.3558 35.4391 31.6074 34.8228H26.0071V26.1942H31.6074ZM31.6074 15.0232C38.2051 15.0232 37.668 22.8814 31.6074 22.8814H26.0071V15.0232H31.6074Z" fill="black"/>
</svg>
