<svg width="116" height="78" viewBox="0 0 116 78" fill="none" xmlns="http://www.w3.org/2000/svg">
<path d="M19.3072 19.4987H38.6235V38.9975H19.3072V19.4987Z" fill="#C3F1F3"/>
<path d="M57.9444 19.4987H77.2607V38.9975H57.9444V19.4987Z" fill="#C3F1F3"/>
<path d="M96.5813 19.4987H115.898V38.9975H96.5813V19.4987Z" fill="#C3F1F3"/>
<path d="M19.3072 58.4985H38.6235V77.9973H19.3072V58.4985Z" fill="#C3F1F3"/>
<path d="M57.9444 58.4985H77.2607V77.9973H57.9444V58.4985Z" fill="#C3F1F3"/>
<path d="M96.5813 58.4985H115.898V77.9973H96.5813V58.4985Z" fill="#C3F1F3"/>
<path d="M0 0H19.3163V19.4989H0V0Z" fill="#C7C8F5"/>
<path d="M38.6372 0H57.9535V19.4989H38.6372V0Z" fill="#C7C8F5"/>
<path d="M77.2723 0H96.5886V19.4989H77.2723V0Z" fill="#C7C8F5"/>
<path d="M0 39H19.3163V58.4989H0V39Z" fill="#C7C8F5"/>
<path d="M38.6372 39H57.9535V58.4989H38.6372V39Z" fill="#C7C8F5"/>
<path d="M77.2723 39H96.5886V58.4989H77.2723V39Z" fill="#C7C8F5"/>
</svg>
