<svg width="40" height="50" viewBox="0 0 40 50" fill="none" xmlns="http://www.w3.org/2000/svg">
<path fill-rule="evenodd" clip-rule="evenodd" d="M27.3472 1.77665e-05L39.3858 12.0896V47.0896C39.3858 49.3284 37.6766 50 35.0757 50H7.13404C4.97896 50 2.22939 49.0299 2.22939 46.2687V42.1642C1.11469 42.2388 -4.86211e-06 41.791 0 40.8955V26.8657C-6.76543e-07 25.3731 0.891755 25.1493 2.22939 25.1866V4.85076C2.22939 1.41793 4.75602 7.28778e-05 7.13404 1.77665e-05C9.51206 -3.73448e-05 27.3472 1.77665e-05 27.3472 1.77665e-05ZM7.13404 47.0896C5.98318 46.9322 5.51962 46.6507 5.27622 45.5224V42.1642H30.4683C31.8059 42.1642 32.8463 41.7164 32.8463 40.2239V26.8657C32.8463 25.8209 31.8059 25.1866 30.4683 25.1866H5.27622V4.85076C5.27622 3.65679 6.46522 3.35823 7.13404 3.35823H26.3068V11.2687C26.3068 12.5373 27.5701 13.8806 28.9077 13.8806H36.9335V45.5224C36.9335 46.4925 36.1161 47.0896 35.0757 47.0896H7.13404ZM11.5928 38.2836C1.85782 40.8955 2.67526 26.4926 11.7414 29.7762L11.2956 31.3433C4.97896 29.403 5.64778 38.6568 11.2956 36.6419L11.5928 38.2836ZM14.2681 34.1792C11.2956 32.6866 13.0791 27.8359 18.4296 29.7762L18.058 31.3433C14.714 30.1493 13.5249 32.0896 16.4232 33.1344C21.3278 35.2239 17.5378 40.3732 12.7075 38.0598L13.0791 36.3433C17.0177 38.1344 18.1323 35.2239 14.2681 34.1792ZM21.4764 34.1792C18.5039 32.6866 20.2874 27.8359 25.638 29.7762L25.2664 31.3433C21.9223 30.1493 20.7333 32.0896 23.6315 33.1344C28.5362 35.2239 24.7462 40.3732 19.9159 38.0598L20.2874 36.3433C24.226 38.1344 25.3407 35.2239 21.4764 34.1792Z" fill="black"/>
</svg>
