<svg width="238" height="300" viewBox="0 0 238 300" fill="none" xmlns="http://www.w3.org/2000/svg">
<path fill-rule="evenodd" clip-rule="evenodd" d="M164.776 0.000106599L237.313 72.5374V282.537C237.313 295.97 227.015 300 211.343 300H42.9851C30 300 13.4328 294.179 13.4328 277.612V252.985C6.71639 253.433 -2.92959e-05 250.746 0 245.373V161.194C-4.07641e-06 152.239 5.37313 150.896 13.4328 151.119V29.1046C13.4328 8.50756 28.6567 0.000437267 42.9851 0.000106599C57.3134 -0.000224069 164.776 0.000106599 164.776 0.000106599ZM42.9851 282.537C36.0507 281.593 33.2576 279.904 31.791 273.134V252.985H183.582C191.642 252.985 197.91 250.299 197.91 241.343V161.194C197.91 154.925 191.642 151.119 183.582 151.119H31.791V29.1046C31.791 21.9407 38.9552 20.1494 42.9851 20.1494H158.507V67.612C158.507 75.224 166.119 83.2837 174.179 83.2837H222.537V273.134C222.537 278.955 217.612 282.537 211.343 282.537H42.9851ZM69.8507 229.702C11.194 245.373 16.1194 158.956 70.7462 178.657L68.0596 188.06C30 176.418 34.0298 231.941 68.0596 219.851L69.8507 229.702ZM85.9701 205.075C68.0596 196.12 78.8059 167.015 111.045 178.657L108.806 188.06C88.6567 180.896 81.4925 192.538 98.9552 198.806C128.507 211.344 105.672 242.239 76.5671 228.359L78.8059 218.06C102.537 228.806 109.254 211.344 85.9701 205.075ZM129.403 205.075C111.492 196.12 122.239 167.015 154.478 178.657L152.239 188.06C132.089 180.896 124.925 192.538 142.388 198.806C171.94 211.344 149.104 242.239 120 228.359L122.239 218.06C145.97 228.806 152.686 211.344 129.403 205.075Z" fill="#7234BA"/>
</svg>
