<svg width="16" height="16" viewBox="0 0 16 16" fill="none" xmlns="http://www.w3.org/2000/svg">
<path fill-rule="evenodd" clip-rule="evenodd" d="M2.02144 9.14725C2.70225 13.3078 5.6177 14.999 8.43329 15H8.43828C11.3264 14.999 14.108 13.2199 14.2632 10.504C12.7303 12.8033 9.9925 13.1328 8.30631 12.0598C6.77341 10.6802 7.38657 8.84068 10.6057 8.07423C14.1313 7.46107 15.2044 3.78212 12.2919 2.09592C11.2309 1.38859 9.8894 1 8.52849 1C5.17049 1 1.69418 3.36592 2.02144 9.14725ZM5.70038 3.62883C4.47407 6.23475 5.24051 9.76042 6.9267 11.2933C6.62012 9.60713 6.77341 8.5341 9.9925 5.92817C12.5984 3.16896 7.84644 -0.203423 5.70038 3.62883Z" fill="#91B5F5"/>
<path fill-rule="evenodd" clip-rule="evenodd" d="M8.52849 1C5.17049 1 1.69418 3.36592 2.02144 9.14725C2.70225 13.3078 5.6177 14.999 8.43329 15H8.43828C11.3264 14.999 14.108 13.2199 14.2632 10.504C12.7303 12.8033 9.9925 13.1328 8.30631 12.0598C6.77341 10.6802 7.38657 8.84068 10.6057 8.07423C14.1313 7.46107 15.2044 3.78212 12.2919 2.09592C11.2309 1.38859 9.8894 1 8.52849 1ZM6.9267 11.2933C5.24051 9.76042 4.47407 6.23475 5.70038 3.62883C7.84644 -0.203423 12.5984 3.16896 9.9925 5.92817C6.77341 8.5341 6.62012 9.60713 6.9267 11.2933Z" fill="#91B5F5"/>
<path fill-rule="evenodd" clip-rule="evenodd" d="M8.30631 12.0598C9.9925 13.1328 12.7303 12.8033 14.2632 10.504C14.108 13.2199 11.3264 14.999 8.43828 15H8.43329C5.6177 14.999 2.70225 13.3078 2.02144 9.14725C1.69418 3.36592 5.17049 1 8.52849 1C9.8894 1 11.2309 1.38859 12.2919 2.09592C15.2044 3.78212 14.1313 7.46107 10.6057 8.07423C7.38657 8.84068 6.77341 10.6802 8.30631 12.0598ZM6.9267 11.2933C5.24051 9.76042 4.47407 6.23475 5.70038 3.62883C7.84644 -0.203423 12.5984 3.16896 9.9925 5.92817C6.77341 8.5341 6.62012 9.60713 6.9267 11.2933Z" fill="#91B5F5"/>
</svg>
