<svg width="325" height="40" viewBox="0 0 325 40" fill="none" xmlns="http://www.w3.org/2000/svg">
<path fill-rule="evenodd" clip-rule="evenodd" d="M0.0584435 24.0371C3.81893 47.0181 32.5912 42.3595 33.4269 27.7352C29.2485 34.0028 21.7859 34.9009 17.1897 31.976C13.0113 28.2155 14.6827 23.2015 23.4573 21.1123C33.0675 19.4409 35.9923 9.41287 28.0535 4.81665C18.0254 -1.86871 -1.19511 1.89182 0.0584435 24.0371ZM10.0865 8.99503C6.74378 16.0982 8.83296 25.7085 13.4292 29.8868C12.5935 25.2906 13.0113 22.3658 21.7859 15.2626C28.8891 7.74152 15.9362 -1.45087 10.0865 8.99503Z" fill="#B090F5"/>
<path d="M102.786 13.9912C104.195 15.1951 104.765 16.7039 104.413 18.4839C104.077 20.1829 103.037 21.3492 101.388 21.9161C98.4024 22.9426 95.3363 20.6998 95.36 17.5237C95.3609 17.4046 95.3601 17.2854 95.3601 17.1047C93.5962 18.2995 92.2271 19.8191 91.1022 21.6132C91.7227 21.7496 92.3175 21.851 92.8954 22.0125C95.1272 22.6365 96.8892 23.9699 98.3812 25.6998C99.7298 27.2636 100.735 29.0513 101.755 30.8326C102.306 31.7952 102.907 32.7301 103.51 33.6611C103.665 33.8995 103.898 34.0989 104.126 34.275C104.589 34.6318 105.088 34.6644 105.61 34.3775C106.219 34.0421 107.218 34.1851 107.723 34.6591C107.954 34.8766 107.96 35.0898 107.801 35.3637C107.037 36.681 105.954 37.6743 104.671 38.46C103.226 39.3446 101.668 39.8795 99.9597 39.9547C97.6395 40.0568 95.7943 39.1537 94.3593 37.3576C93.2296 35.9436 92.5305 34.3024 91.8775 32.6379C91.2652 31.0769 90.6889 29.5008 90.0343 27.9578C89.796 27.3962 89.395 26.8986 89.0329 26.3973C88.8881 26.1968 88.648 26.0652 88.3765 25.8404C88.3765 26.0904 88.3765 26.2307 88.3765 26.371C88.3765 30.2153 88.3767 34.0596 88.3763 37.9038C88.3762 38.7714 88.1171 39.1337 87.2563 39.3239C85.9196 39.6193 84.5824 39.4955 83.2918 39.1033C80.4087 38.2272 78.5698 36.3322 77.9271 33.3546C77.8274 32.8929 77.8002 32.4078 77.7999 31.9335C77.7928 22.5614 77.7944 13.1894 77.7949 3.81726C77.795 3.0282 78.0699 2.65368 78.8543 2.46826C80.0788 2.17878 81.3059 2.27363 82.5132 2.56722C84.951 3.16005 86.7385 4.56964 87.7765 6.87713C88.2062 7.83239 88.3812 8.84129 88.3791 9.88902C88.3722 13.4814 88.3765 17.0738 88.3765 20.6663C88.3765 20.7928 88.3765 20.9194 88.3765 21.1004C88.8272 20.3936 89.2129 19.7219 89.6622 19.0959C91.3308 16.7714 93.3977 14.9125 96.0665 13.8C97.4874 13.2078 98.9662 12.8816 100.52 13.0461C101.358 13.1348 102.099 13.463 102.786 13.9912Z" fill="#B090F5"/>
<path d="M122.375 15.3755C124.028 15.7683 125.558 16.3634 126.922 17.3727C127.976 16.5085 129.167 15.9615 130.492 15.7216C131.539 15.5319 132.596 15.4361 133.65 15.6623C134.595 15.865 134.867 16.2218 134.867 17.1737C134.867 22.8076 134.866 28.4415 134.867 34.0754C134.868 34.3536 134.866 34.6328 134.887 34.9099C134.924 35.3962 135.168 35.5668 135.606 35.3459C136.051 35.1212 136.47 34.8355 136.871 34.5377C137.511 34.0631 138.502 34.1018 139.084 34.6553C139.296 34.8563 139.343 35.0759 139.183 35.3297C137.66 37.7473 135.604 39.4709 132.72 39.8973C130.594 40.2116 128.657 39.5505 126.991 38.1866C126.689 37.9388 126.505 37.9542 126.182 38.1307C122.926 39.9139 119.479 40.5828 115.892 39.4233C112.191 38.2267 109.803 35.5894 108.704 31.8998C107.442 27.6618 107.774 23.5263 110.33 19.8146C112.754 16.292 116.196 14.7074 120.494 15.1108C121.113 15.1689 121.726 15.2818 122.375 15.3755ZM120.217 18.6327C120.012 19.0159 119.77 19.3842 119.609 19.7849C119.008 21.2752 118.817 22.8516 118.702 24.438C118.492 27.3452 118.701 30.2036 119.768 32.9513C120.217 34.1046 120.75 35.2205 121.672 36.0728C122.016 36.3915 122.472 36.6443 122.922 36.781C123.542 36.9695 124.303 36.4289 124.299 35.6606C124.265 30.2294 124.279 24.7979 124.288 19.3665C124.288 19.0954 124.221 18.9018 123.986 18.7827C123.47 18.5214 122.969 18.2111 122.427 18.0263C121.607 17.7474 120.827 17.8212 120.217 18.6327Z" fill="#B090F5"/>
<path d="M57.2127 22.7526C54.5184 25.5416 49.8016 24.0581 49.3112 20.0341C48.6673 20.8544 48.2401 21.7528 47.9042 22.6998C47.2396 24.5737 46.8863 26.5189 46.814 28.4922C46.699 31.63 46.6918 34.7718 46.6448 37.9121C46.6321 38.7633 46.3879 39.1392 45.5516 39.3109C43.7849 39.6736 42.0549 39.4592 40.4376 38.6927C37.5555 37.3267 36.079 35.0074 36.0663 31.8106C36.0469 26.9456 36.0726 22.0804 36.0517 17.2154C36.0474 16.2292 36.3572 15.7759 37.3824 15.6349C40.5423 15.2007 44.1116 16.3484 45.8469 19.733C46.0091 20.0495 46.1366 20.3838 46.2876 20.7265C46.5687 20.2183 46.8295 19.7024 47.1303 19.2109C48.1116 17.6075 49.3449 16.2575 51.1391 15.5616C52.7832 14.9238 54.4606 14.7201 56.0881 15.6161C58.6942 17.0509 59.2379 20.5029 57.2127 22.7526Z" fill="#B090F5"/>
<path d="M60.0339 6.47124C64.2646 5.40456 65.7152 4.01532 66.5051 0C67.4097 4.08214 68.6659 5.65384 72.9764 6.47124C68.7315 7.71277 67.3921 9.18683 66.5051 12.9425C65.3468 9.2042 64.355 7.41068 60.0339 6.47124Z" fill="#B090F5"/>
<path d="M76.2036 34.97C76.1762 35.121 76.1661 35.2613 76.0997 35.3657C74.6083 37.7095 72.6063 39.4103 69.8118 39.8637C67.2998 40.2713 65.1052 39.4321 63.3173 37.6267C61.8916 36.1871 61.216 34.4234 61.2182 32.3934C61.2239 27.3319 61.2317 22.2705 61.2103 17.2091C61.2061 16.2012 61.5387 15.7414 62.5788 15.6268C65.4901 15.3059 68.0792 16.0141 70.067 18.2952C71.2505 19.6534 71.8052 21.2663 71.8032 23.072C71.7991 26.7422 71.8019 30.4124 71.8022 34.0826C71.8022 34.2946 71.7974 34.5069 71.8072 34.7185C71.8404 35.4414 72.1123 35.6135 72.7386 35.2644C73.1407 35.0404 73.5171 34.7647 73.8841 34.4846C74.5658 33.9643 75.7598 34.1924 76.2036 34.97Z" fill="#B090F5"/>
<path d="M181.576 38.6596C180.042 39.1655 178.507 39.5092 176.934 39.7046C174.744 39.9769 172.546 40.0308 170.347 39.9023C169.249 39.8382 168.145 39.7204 167.065 39.5116C165.812 39.2691 164.562 38.9654 163.349 38.5701C161.69 38.0294 160.163 37.1992 158.794 36.1053C157.401 34.9924 156.348 33.6065 155.691 31.9531C155.29 30.9445 155.146 29.8754 155.196 28.7764C155.26 27.3425 155.801 26.1091 156.79 25.1138C158.064 23.8303 159.648 23.317 161.455 23.5549C161.932 23.6178 162.442 23.6235 162.872 23.8076C163.39 24.0292 163.87 24.3737 164.31 24.7339C165.786 25.9421 166.494 27.5397 166.367 29.4246C166.221 31.6061 165.076 33.1762 163.119 34.1508C163.003 34.2086 162.885 34.2634 162.746 34.3303C164.141 35.4306 165.677 36.1829 167.394 36.5588C169.141 36.9409 170.885 36.9521 172.602 36.4329C173.547 36.1471 174.433 35.7326 175.102 34.9436C175.813 34.1049 176.28 33.1781 176.253 32.0629C176.225 30.8654 175.72 29.846 174.88 29.0259C174.214 28.3758 173.505 27.7506 172.736 27.2294C171.734 26.5491 170.654 25.9809 169.606 25.3679C169.32 25.2007 169.026 25.0473 168.737 24.885C167.522 24.2015 166.3 23.5283 165.092 22.83C163.695 22.0217 162.262 21.2654 161.033 20.1959C160.439 19.6784 159.794 19.2097 159.249 18.6452C157.929 17.2801 156.948 15.707 156.632 13.7987C156.538 13.2258 156.552 12.6335 156.533 12.0496C156.5 10.9915 156.863 10.0251 157.245 9.06397C157.79 7.6967 158.655 6.55111 159.753 5.59706C161.478 4.09907 163.524 3.21737 165.716 2.65305C167.269 2.25297 168.847 1.98061 170.453 1.92318C171.735 1.87732 173.024 1.7814 174.3 1.85826C175.682 1.94143 177.057 2.16846 178.427 2.3888C180.075 2.6541 181.65 3.19483 183.145 3.92613C185.242 4.95164 187.082 6.28963 188.111 8.48491C189.339 11.107 188.747 14.0615 186.324 15.8138C185.199 16.6276 183.913 16.9206 182.542 16.7829C179.463 16.4736 177.21 13.6782 177.582 10.6159C177.815 8.68915 178.579 7.5939 180.568 6.22277C179.837 5.89257 179.187 5.52026 178.489 5.29884C176.353 4.62134 174.235 4.63544 172.214 5.71553C169.687 7.06652 168.61 10.5704 171.164 13.0502C172.368 14.2187 173.779 15.0711 175.252 15.8288C177.214 16.838 179.21 17.7797 181.165 18.8018C183.226 19.8795 185.223 21.0682 186.859 22.7605C188.107 24.0508 189.014 25.5489 189.273 27.3419C189.661 30.0276 189.074 32.506 187.423 34.6858C186.155 36.3596 184.467 37.4835 182.539 38.2694C182.228 38.3962 181.917 38.5234 181.576 38.6596Z" fill="#B090F5"/>
<path d="M193.536 35.0788C193.007 34.3175 192.582 33.5292 192.309 32.6714C192.029 31.7918 191.771 30.9036 191.548 30.0081C191.459 29.6497 191.484 29.2619 191.465 28.8871C191.432 28.235 191.347 27.579 191.388 26.9313C191.469 25.6606 191.649 24.4057 192.028 23.1749C192.482 21.6997 193.157 20.3471 194.126 19.1634C194.672 18.4965 195.336 17.9189 195.986 17.3454C197.376 16.118 199.047 15.4894 200.85 15.1798C202.044 14.975 203.245 14.9677 204.433 15.1938C205.378 15.3734 206.316 15.5962 207.247 15.8385C208.24 16.0967 209.134 16.5851 209.972 17.1639C210.214 17.331 210.378 17.2735 210.56 17.1335C211.845 16.1455 213.318 15.6796 214.916 15.6101C215.634 15.5788 216.365 15.5905 217.073 15.6953C217.936 15.8229 218.24 16.2621 218.24 17.1394C218.241 22.7864 218.24 28.4335 218.241 34.0805C218.241 34.3853 218.241 34.6909 218.263 34.9946C218.29 35.3801 218.544 35.5465 218.885 35.3683C219.317 35.1428 219.744 34.8934 220.132 34.6005C220.372 34.4192 220.559 34.209 220.898 34.2054C221.396 34.2 221.866 34.2595 222.287 34.5433C222.686 34.8115 222.745 35.008 222.489 35.4222C221.379 37.2174 219.854 38.5159 217.927 39.4014C216.705 39.9631 215.435 40.0556 214.175 39.9095C212.597 39.7266 211.181 39.0473 209.975 37.9079C209.641 38.0894 209.295 38.2932 208.937 38.4702C207.414 39.2211 205.824 39.7541 204.118 39.8542C203.133 39.912 202.14 39.9791 201.158 39.9143C200.501 39.8708 199.852 39.6236 199.209 39.4313C197.963 39.058 196.862 38.4259 195.849 37.6008C194.957 36.8737 194.199 36.0416 193.536 35.0788ZM202.131 28.8186C202.318 30.2394 202.62 31.6324 203.147 32.9692C203.586 34.083 204.12 35.1435 204.964 36.0151C205.328 36.3908 205.738 36.7002 206.272 36.7967C206.983 36.9254 207.653 36.4474 207.653 35.7973C207.656 30.2965 207.656 24.7957 207.645 19.295C207.645 19.1413 207.542 18.9409 207.422 18.8424C206.872 18.3921 206.239 18.1018 205.539 17.9561C204.615 17.7638 204.008 18.0013 203.49 18.7776C202.975 19.5502 202.705 20.4209 202.512 21.3152C201.982 23.7704 201.896 26.2511 202.131 28.8186Z" fill="#B090F5"/>
<path d="M226.618 37.3957C225.633 36.571 225.045 35.5279 224.607 34.366C224.285 33.5112 224.238 32.6387 224.238 31.7493C224.238 26.8453 224.24 21.9414 224.234 17.0375C224.233 16.6176 224.257 16.2022 224.643 15.9698C224.925 15.8005 225.258 15.6611 225.581 15.6258C227.686 15.396 229.675 15.7351 231.494 16.8831C231.642 16.9765 231.931 17.0109 232.07 16.9294C233.945 15.8358 235.976 15.296 238.126 15.118C240.913 14.8871 243.601 15.2006 246.088 16.5631C248.32 17.7859 249.768 19.6369 250.304 22.1434C250.426 22.7167 250.44 23.3209 250.443 23.9111C250.455 27.304 250.448 30.697 250.45 34.09C250.45 34.3944 250.457 34.7002 250.486 35.0029C250.524 35.3985 250.765 35.5481 251.117 35.3627C251.561 35.1289 252.049 34.9146 252.394 34.5683C252.97 33.9896 253.56 34.2066 254.172 34.3731C254.318 34.4131 254.448 34.5215 254.581 34.6052C254.899 34.8053 254.936 35.0612 254.742 35.3759C253.577 37.2629 251.97 38.6194 249.929 39.494C248.767 39.9917 247.549 40.0533 246.357 39.9048C245.061 39.7434 243.861 39.2341 242.792 38.4018C241.279 37.2233 240.329 35.7266 239.942 33.8685C239.85 33.4312 239.861 32.9684 239.86 32.5173C239.854 29.3629 239.856 26.2085 239.857 23.0541C239.857 22.0078 239.757 20.9728 239.432 19.9748C239.123 19.0251 238.552 18.2571 237.595 17.9057C236.7 17.5769 235.798 17.7308 234.953 18.1507C234.869 18.1921 234.826 18.3871 234.825 18.5111C234.818 20.4594 234.82 22.4077 234.82 24.356C234.82 28.8756 234.81 33.3952 234.829 37.9147C234.832 38.8213 234.411 39.2307 233.477 39.3642C232.714 39.4731 231.918 39.5335 231.159 39.44C229.84 39.2778 228.573 38.8786 227.463 38.1052C227.17 37.9015 226.913 37.6464 226.618 37.3957Z" fill="#B090F5"/>
<path d="M316.505 15.124C317.654 15.4703 318.803 15.7353 319.876 16.1812C321.277 16.7634 322.498 17.6244 323.194 19.0583C324.129 20.9875 323.454 23.468 321.397 24.525C320.62 24.9241 319.787 25.0626 318.983 24.9588C317.309 24.7427 316.234 23.7955 315.639 22.0023C315.431 21.3755 315.466 20.7366 315.548 20.0892C315.65 19.2823 316.049 18.6432 316.619 18.0357C315.956 17.7305 315.351 17.3271 314.579 17.4272C314.094 17.4902 313.583 17.4595 313.125 17.6044C312.732 17.7291 312.415 18.0744 312.035 18.2658C311.513 18.5293 311.322 19.0489 311.122 19.5014C310.706 20.4447 310.982 21.3243 311.652 22.077C312.287 22.7907 313.049 23.3337 313.899 23.776C314.919 24.3065 315.905 24.9024 316.917 25.447C317.525 25.7738 318.193 25.9993 318.769 26.3709C320.171 27.2755 321.685 28.0406 322.799 29.3343C323.211 29.8115 323.607 30.3079 323.951 30.8339C324.113 31.0812 324.188 31.4151 324.213 31.7172C324.383 33.8058 323.737 35.6016 322.199 37.0422C321.13 38.0429 319.841 38.6719 318.467 39.1349C317.221 39.5549 315.937 39.8017 314.625 39.8534C313.36 39.9032 312.092 39.9344 310.827 39.9097C309.156 39.8772 307.533 39.5226 305.962 38.9737C304.831 38.5788 303.762 38.0261 302.838 37.258C301.676 36.2916 300.764 35.1059 300.548 33.5782C300.372 32.3299 300.62 31.1334 301.542 30.144C302.014 29.6375 302.564 29.3184 303.175 29.0161C304.008 28.6034 304.825 28.7875 305.633 28.9382C306.157 29.036 306.738 29.2338 307.12 29.5791C307.533 29.9531 307.922 30.4035 308.193 30.943C308.805 32.1634 308.739 33.3545 308.282 34.5984C308.05 35.2297 307.554 35.6049 307.1 36.1081C307.583 36.3895 307.968 36.8083 308.599 36.7896C308.83 36.7828 309.063 36.944 309.301 37.0109C310.049 37.222 310.815 37.3343 311.587 37.2297C312.802 37.0651 313.9 36.6491 314.588 35.544C315.136 34.6625 314.948 33.6605 314.198 32.8917C313.648 32.3281 313.087 31.7872 312.445 31.3524C311.878 30.9678 311.225 30.7088 310.617 30.3829C310.461 30.2996 310.339 30.1547 310.184 30.0694C309.206 29.5297 308.21 29.0205 307.245 28.4587C306.356 27.9413 305.472 27.4066 304.633 26.8142C303.498 26.0137 302.484 25.0635 301.919 23.767C301.568 22.9623 301.475 22.101 301.63 21.1959C301.806 20.1674 302.169 19.2425 302.789 18.4208C303.586 17.3645 304.635 16.6242 305.832 16.0766C307.249 15.4284 308.745 15.0489 310.285 14.9349C311.663 14.8329 313.055 14.8671 314.439 14.8946C315.118 14.9081 315.793 15.0431 316.505 15.124Z" fill="#B090F5"/>
<path d="M267.198 15.518C267.701 15.5242 268.208 15.5748 268.706 15.5273C269.814 15.4218 270.39 16.2621 270.617 17.0924C270.644 17.1926 270.666 17.2949 270.682 17.3975C270.782 18.0187 270.6 18.2342 269.977 18.2342C269.039 18.2343 268.101 18.2343 267.121 18.2343C267.121 18.3793 267.121 18.4942 267.121 18.6092C267.121 23.8451 267.121 29.081 267.122 34.3169C267.122 34.5155 267.12 34.7159 267.144 34.9122C267.209 35.4212 267.504 35.5778 267.943 35.3181C268.298 35.1081 268.646 34.8788 268.969 34.6222C269.646 34.0832 270.616 34.0678 271.289 34.618C271.545 34.8271 271.616 35.0532 271.419 35.3692C270.178 37.3673 268.466 38.7792 266.267 39.6219C265.201 40.0305 264.085 40.0436 263.011 39.9056C261.623 39.7272 260.368 39.1393 259.243 38.2312C257.851 37.1069 257.067 35.6529 256.638 33.9784C256.505 33.4589 256.544 32.8896 256.543 32.343C256.537 27.7964 256.539 23.2498 256.539 18.7032C256.539 18.5855 256.539 18.4677 256.539 18.3525C256.113 18.3058 255.683 18.3261 255.299 18.2036C254.294 17.883 253.841 16.7278 254.026 15.7432C254.043 15.6518 254.295 15.5505 254.44 15.5461C255.126 15.5254 255.813 15.5368 256.539 15.5368C256.539 14.935 256.538 14.3556 256.54 13.7761C256.543 12.6635 256.49 11.5467 256.568 10.4392C256.65 9.28091 257.074 8.20267 257.729 7.2424C258.52 6.08206 259.522 5.11502 260.843 4.60654C261.711 4.27246 262.644 4.04717 263.567 3.93435C264.376 3.83552 265.22 3.90088 266.035 4.00546C266.821 4.10642 267.121 4.55234 267.121 5.34621C267.122 8.68656 267.122 12.0269 267.123 15.427C267.149 15.4972 267.173 15.5076 267.198 15.518Z" fill="#B090F5"/>
<path fill-rule="evenodd" clip-rule="evenodd" d="M277.168 17.4155C276.929 17.5687 276.688 17.7228 276.442 17.8727C276.238 18.0704 276.032 18.2618 275.826 18.4518C275.363 18.8809 274.906 19.3035 274.513 19.7781C273.877 20.5445 273.313 21.3816 272.807 22.2406C272.468 22.8169 272.237 23.4705 272.043 24.1152C271.74 25.1203 271.514 26.1525 271.533 27.2098C271.543 27.7564 271.6 28.3025 271.656 28.8482C271.673 29.0115 271.69 29.1748 271.705 29.338C271.798 30.3052 272.086 31.2249 272.486 32.1003C273.118 33.4818 273.935 34.7335 275.02 35.8248C275.958 36.7686 276.972 37.603 278.145 38.2009C279.09 38.6822 280.099 39.054 281.109 39.384C281.885 39.6375 282.7 39.85 283.51 39.9013C284.61 39.9709 285.722 39.9058 286.827 39.8412L286.867 39.8388C288.251 39.7578 289.569 39.3915 290.848 38.8497C293.472 37.7386 295.608 36.0554 297.117 33.6183C298.759 30.9645 299.3 28.0849 298.614 25.0506C297.782 21.3666 295.574 18.6645 292.295 16.8461C289.661 15.3852 286.828 14.8254 283.818 15.1005C282.1 15.2576 280.455 15.6689 278.907 16.4034C278.306 16.6884 277.741 17.0493 277.168 17.4155ZM285.224 18.4421C284.125 24.0257 283.699 25.9576 277.816 27.4409C282.987 28.5652 283.551 30.5692 284.635 34.4197C284.81 35.0432 284.999 35.7152 285.224 36.4396C285.269 36.2483 285.313 36.0612 285.356 35.8782C286.484 31.0673 286.945 29.1041 292.632 27.4409C286.955 26.3644 286.514 24.3472 285.415 19.3151C285.354 19.0336 285.29 18.7428 285.224 18.4421Z" fill="#B090F5"/>
</svg>
