<svg width="60" height="60" viewBox="0 0 60 60" fill="none" xmlns="http://www.w3.org/2000/svg">
<path d="M33 44V4H13L12 8.29688H28.1562V21.8125H8.5L7.5 26L28.1562 26.1094V39.7031H4L3 44H33Z" fill="#D5116F"/>
<path d="M52.7989 26.2273C52.5923 24.3081 51.7544 22.8182 50.2851 21.7576C48.8159 20.697 47.0138 20.1667 44.8788 20.1667C43.3177 20.1667 41.9518 20.4444 40.781 21C39.6217 21.5556 38.7149 22.3194 38.0606 23.2917C37.4178 24.2639 37.0964 25.3687 37.0964 26.6061C37.0964 27.6414 37.3202 28.5316 37.7679 29.2765C38.227 30.0088 38.8124 30.6212 39.5241 31.1136C40.2358 31.5934 40.9819 31.9912 41.7624 32.3068C42.5429 32.6098 43.2603 32.8561 43.9146 33.0455L47.4959 34.1061C48.4141 34.3712 49.4357 34.7374 50.5606 35.2045C51.697 35.6717 52.7817 36.3093 53.8147 37.1174C54.8593 37.9129 55.7202 38.9356 56.3974 40.1856C57.0746 41.4356 57.4132 42.9697 57.4132 44.7879C57.4132 46.8838 56.9139 48.7778 55.9153 50.4697C54.9282 52.1616 53.4819 53.5063 51.5765 54.5038C49.6825 55.5013 47.3811 56 44.6722 56C42.1469 56 39.9603 55.5518 38.1123 54.6553C36.2757 53.7588 34.8294 52.5088 33.7734 50.9053C32.7289 49.3018 32.1377 46.4394 32 44.3182L36.4077 45.3182C36.5225 46.7828 36.9702 47.9949 37.7507 48.9545C38.5427 49.9015 39.5413 50.6086 40.7466 51.0758C41.9633 51.5303 43.2718 51.7576 44.6722 51.7576C46.3021 51.7576 47.7656 51.4672 49.0627 50.8864C50.3597 50.2929 51.3871 49.4722 52.1446 48.4242C52.9022 47.3636 53.281 46.1263 53.281 44.7121C53.281 43.4242 52.9539 42.3763 52.2996 41.5682C51.6453 40.7601 50.7844 40.1035 49.7169 39.5985C48.6495 39.0934 47.4959 38.6515 46.2562 38.2727L41.9174 36.9091C39.1625 36.0379 36.9816 34.7942 35.3747 33.178C33.7677 31.5619 32.9642 29.447 32.9642 26.8333C32.9642 24.6616 33.4979 22.7677 34.5654 21.1515C35.6444 19.5227 37.0907 18.2601 38.9043 17.3636C40.7293 16.4545 42.7668 16 45.0165 16C47.2893 16 49.3095 16.4482 51.0771 17.3447C52.8448 18.2285 54.2452 19.4407 55.2782 20.9811C56.3228 22.5215 56.9426 25.5429 57 27.5L52.7989 26.2273Z" fill="#0084D7"/>
</svg>
