<svg width="16" height="16" viewBox="0 0 16 16" fill="none" xmlns="http://www.w3.org/2000/svg">
<path fill-rule="evenodd" clip-rule="evenodd" d="M1.0245 9.31115C1.80258 14.0661 5.13451 15.9989 8.35233 16C8.35423 16 8.35614 16 8.35804 16C11.6587 15.9988 14.8377 13.9656 15.0151 10.8617C13.2632 13.4895 10.1343 13.8661 8.20722 12.6397C6.45533 11.063 7.15609 8.96078 10.8351 8.08483C14.8644 7.38409 16.0907 3.17956 12.7621 1.25248C11.5496 0.444106 10.0165 1.18741e-07 8.46113 0C4.62341 0 0.650496 2.70391 1.0245 9.31115ZM5.22901 3.00437C3.8275 5.98258 4.70345 10.0119 6.63052 11.7638C6.28014 9.83672 6.45533 8.6104 10.1343 5.6322C13.1125 2.47881 7.68165 -1.37534 5.22901 3.00437Z" fill="#91B5F5"/>
<path fill-rule="evenodd" clip-rule="evenodd" d="M8.46113 0C4.62341 0 0.650496 2.70391 1.0245 9.31115C1.80258 14.0661 5.13451 15.9989 8.35233 16H8.35804C11.6587 15.9988 14.8377 13.9656 15.0151 10.8617C13.2632 13.4895 10.1343 13.8661 8.20722 12.6397C6.45533 11.063 7.15609 8.96078 10.8351 8.08483C14.8644 7.38409 16.0907 3.17956 12.7621 1.25248C11.5496 0.444106 10.0165 1.18741e-07 8.46113 0ZM6.63052 11.7638C4.70345 10.0119 3.8275 5.98258 5.22901 3.00437C7.68165 -1.37534 13.1125 2.47881 10.1343 5.6322C6.45533 8.6104 6.28014 9.83672 6.63052 11.7638Z" fill="#91B5F5"/>
</svg>
