<svg width="201" height="302" viewBox="0 0 201 302" fill="none" xmlns="http://www.w3.org/2000/svg">
<path d="M98.2817 100.691H51.8984C36.0266 99.0836 25.1185 92.5693 18.2056 84.1413C11.1508 75.5401 7.83051 64.4185 8.22828 53.1639C9.02532 30.6124 24.403 9.35871 51.6974 8H98.2817V100.691Z" stroke="#7234BA" stroke-width="16"/>
<path d="M51.873 293.983C24.9642 292.274 9.18415 271.201 8.06283 249.005C7.5045 237.954 10.6529 227.01 17.6703 218.423C24.5545 210 35.6109 203.298 51.9838 201.285L98.2829 201.294L98.2833 250.66C98.2833 250.66 98.2833 250.66 98.2833 250.66C98.2828 276.117 75.9828 294.66 51.873 293.983Z" stroke="#7234BA" stroke-width="16"/>
<path d="M51.7619 197.328C24.9432 195.569 9.30046 174.538 8.22666 152.361C7.69112 141.301 10.8534 130.346 17.8583 121.757C24.728 113.334 35.7325 106.647 51.9854 104.648H98.284V197.337L51.7619 197.328Z" stroke="#7234BA" stroke-width="16"/>
<path d="M192.357 148.441C193.904 174.27 173.813 196.823 148.422 197.34C122.593 197.865 101.081 174.714 102.657 148.442C104.147 123.592 124 104.568 148.422 105.066C172.367 105.555 190.897 124.075 192.357 148.441Z" stroke="#7234BA" stroke-width="16"/>
<path d="M148.342 100.691H102.24V8H148.191C163.969 9.60219 174.927 16.0711 181.926 24.4653C189.062 33.0245 192.487 44.0757 192.184 55.2522C191.578 77.548 176.4 98.9251 148.342 100.691Z" stroke="#7234BA" stroke-width="16"/>
</svg>
