<svg width="33" height="50" viewBox="0 0 33 50" fill="none" xmlns="http://www.w3.org/2000/svg">
<path fill-rule="evenodd" clip-rule="evenodd" d="M7.8122 16.555H16.1203V0H7.8122C-2.00049 0.458194 -3.1126 15.5022 7.8122 16.555Z" fill="black"/>
<path d="M7.81219 33.4412C-3.37427 34.7551 -1.8043 49.405 7.8121 49.9962C12.0643 50.1276 16.1202 46.8445 16.1203 42.1802L16.1202 33.4428L7.81219 33.4412Z" fill="black"/>
<path d="M7.81219 16.7206C-3.30885 18.0268 -1.80412 32.6827 7.81227 33.2739L16.1203 33.2756V16.7206H7.81219Z" fill="black"/>
<path d="M24.5279 33.2133C29.1038 33.1198 32.6518 29.0623 32.3781 24.4743C32.121 20.1643 28.8266 16.8104 24.5279 16.7223C20.1373 16.6324 16.6135 20.0721 16.3506 24.4743C16.0715 29.149 19.8655 33.3086 24.5279 33.2133Z" fill="black"/>
<path d="M16.2852 0V16.555H24.5279C34.5369 15.9621 35.3874 1.04944 24.5279 0L16.2852 0Z" fill="black"/>
</svg>
