<svg width="348" height="348" viewBox="0 0 348 348" fill="none" xmlns="http://www.w3.org/2000/svg">
<path fill-rule="evenodd" clip-rule="evenodd" d="M189.244 6.31434L341.686 158.756C350.105 167.175 350.105 180.825 341.686 189.244L189.244 341.686C180.825 350.105 167.175 350.105 158.756 341.686L6.31433 189.244C-2.10478 180.825 -2.10478 167.175 6.31434 158.756L158.756 6.31433C167.175 -2.10478 180.825 -2.10478 189.244 6.31434ZM318.557 160.858L187.142 29.4434C179.884 22.1855 168.116 22.1855 160.858 29.4434L132.085 58.2169L166.589 92.7213C169.067 91.7652 171.759 91.241 174.573 91.241C186.824 91.241 196.755 101.172 196.755 113.423C196.755 116.238 196.231 118.93 195.275 121.407L228.939 155.071C231.416 154.115 234.108 153.59 236.923 153.59C249.173 153.59 259.105 163.522 259.105 175.772C259.105 188.023 249.173 197.954 236.923 197.954C224.672 197.954 214.741 188.023 214.741 175.772C214.741 172.958 215.265 170.266 216.221 167.788L184.166 135.733V218.115C191.613 221.693 196.755 229.307 196.755 238.122C196.755 250.372 186.824 260.304 174.573 260.304C162.323 260.304 152.391 250.372 152.391 238.122C152.391 228.841 158.091 220.892 166.18 217.583V133.962C158.091 130.653 152.391 122.704 152.391 113.423C152.391 110.608 152.916 107.916 153.872 105.439L119.367 70.9345L29.4434 160.858C22.1855 168.116 22.1855 179.884 29.4434 187.142L160.858 318.557C168.116 325.814 179.884 325.814 187.142 318.557L318.557 187.142C325.814 179.884 325.814 168.116 318.557 160.858Z" fill="#7234BA"/>
</svg>
