<svg width="80" height="80" viewBox="0 0 80 80" fill="none" xmlns="http://www.w3.org/2000/svg">
<path d="M40 0C17.9107 0 0 18.375 0 41.0178C0 59.1428 11.4643 74.5 27.3571 79.9285C27.5801 79.977 27.8076 80.0009 28.0357 80C29.5178 80 30.0893 78.9107 30.0893 77.9643C30.0893 76.9821 30.0536 74.4107 30.0357 70.9821C28.7126 71.2923 27.359 71.454 26 71.4643C18.3036 71.4643 16.5536 65.4821 16.5536 65.4821C14.7321 60.75 12.1071 59.4821 12.1071 59.4821C8.625 57.0357 12.0893 56.9643 12.3571 56.9643H12.375C16.3929 57.3214 18.5 61.2143 18.5 61.2143C20.5 64.7143 23.1786 65.6964 25.5714 65.6964C27.1536 65.6648 28.7114 65.2997 30.1428 64.625C30.5 61.9821 31.5357 60.1785 32.6786 59.1428C23.8036 58.1071 14.4643 54.5893 14.4643 38.875C14.4643 34.3928 16.0179 30.7321 18.5714 27.875C18.1607 26.8393 16.7857 22.6607 18.9643 17.0179C19.2565 16.9479 19.5568 16.9179 19.8571 16.9286C21.3036 16.9286 24.5714 17.4821 29.9643 21.2321C36.517 19.3988 43.4472 19.3988 50 21.2321C55.3928 17.4821 58.6607 16.9286 60.1071 16.9286C60.4074 16.9179 60.7078 16.9479 61 17.0179C63.1785 22.6607 61.8035 26.8393 61.3928 27.875C63.9464 30.75 65.5 34.4107 65.5 38.875C65.5 54.625 56.1428 58.0893 47.2321 59.1071C48.6607 60.375 49.9464 62.875 49.9464 66.6964C49.9464 72.1785 49.8928 76.6071 49.8928 77.9464C49.8928 78.9107 50.4464 80 51.9285 80C52.1685 80.001 52.4079 79.9771 52.6428 79.9285C68.5535 74.5 80 59.125 80 41.0178C80 18.375 62.0893 0 40 0Z" fill="#C7C8F5"/>
</svg>
