<svg width="53" height="50" viewBox="0 0 53 50" fill="none" xmlns="http://www.w3.org/2000/svg">
<path d="M18.9333 50H17.0189C9.69915 48.6486 -0.435989 37.5 0.0145111 25.7884C-0.305289 11.456 11.8046 -0.0618084 26.1405 0.000249602C40.4139 0.0620372 52.3597 11.5184 52.0413 25.7884C51.799 36.6438 44.5844 46.2384 34.8223 50H32.7846C32.3342 50 32.3342 49.3243 32.3342 49.3243V44.7072C32.3342 41.9472 32.4386 38.874 30.4086 37.1933C36.7439 36.5436 42.3779 34.0041 42.4692 25.7884C42.5092 22.1882 41.4814 19.4364 39.7665 17.391C40.6296 14.7752 40.4276 13.28 39.4287 10.5858C36.6296 10.777 35.1811 11.3634 32.7846 13.1881C30.6201 12.5891 28.2663 12.3461 25.9153 12.3876C23.7084 12.4265 21.469 12.7339 19.3837 13.3445C17.0226 11.6144 15.5542 10.9044 12.4018 10.5858C11.5117 13.353 11.6074 14.8753 12.2344 17.5677C10.3141 19.728 9.24345 22.6208 9.58649 26.3515C10.3083 34.2006 15.4926 36.5362 21.4207 37.1709C20.4239 37.9843 19.942 39.1332 19.7098 40.428C19.7098 40.428 18.9937 40.908 18.4828 41.1037C17.8143 41.3597 16.6811 41.4415 16.6811 41.4415C16.6811 41.4415 15.4791 41.366 14.7667 41.1037C14.1012 40.8586 13.1901 40.2028 13.1901 40.2028C13.1901 40.2028 12.5683 39.3822 12.1766 38.8514C11.8214 38.3701 11.2757 37.6127 11.2757 37.6127C11.2757 37.6127 10.4769 36.7181 9.81172 36.3739C9.28046 36.0991 8.34776 35.9235 8.34776 35.9235C8.34776 35.9235 7.44025 35.7961 7.10903 36.1487C6.91859 36.3514 6.96962 36.3223 6.99642 36.5992C7.03836 37.0325 7.33065 37.1174 7.67209 37.3875C7.99748 37.6449 8.25472 37.6844 8.57299 37.9505C8.9316 38.2504 9.07342 38.4831 9.36127 38.8514C9.75181 39.3512 9.98293 39.6333 10.2622 40.2028C10.4888 40.6649 10.5086 40.9689 10.7126 41.4415C10.9075 41.8929 10.9886 42.0558 11.2757 42.455C11.5662 42.8589 11.7866 43.0469 12.1766 43.3559C12.6555 43.7353 12.9681 43.8995 13.5279 44.1442C14.076 44.3837 14.4049 44.4795 14.9919 44.5946C16.0708 44.8062 17.8072 44.5946 17.8072 44.5946C17.8072 44.5946 18.5072 44.5094 18.9333 44.3694C19.1581 44.2955 19.4958 44.2568 19.4958 44.2568L19.4959 44.3102C19.4962 44.4429 19.4964 44.5753 19.4964 44.7072V49.3243C19.4964 49.3243 19.4964 50 18.9333 50Z" fill="black"/>
</svg>
