<svg width="52" height="52" viewBox="0 0 52 52" fill="none" xmlns="http://www.w3.org/2000/svg">
<path fill-rule="evenodd" clip-rule="evenodd" d="M26.2614 50.9975C40.3471 50.7937 51.6915 38.3532 50.7995 24.2943C49.9629 11.1085 39.4722 1.19381 26.2614 1.00275C12.8447 0.808716 1.8511 10.9031 1.00154 24.2943C0.0973739 38.5461 11.9824 51.2041 26.2614 50.9975ZM42.2046 37.8755C41.3736 38.8177 39.0553 38.5316 39.0553 38.5316H35.1843V25.3451L25.9333 32.3643L16.6823 25.2731V38.5316H12.8769C12.8769 38.5316 10.6418 38.7676 9.79326 37.8755C9.11164 37.1589 9.07155 35.448 9.07155 35.448V19.4391V16.8147C9.07155 16.8147 8.80911 15.1745 10.4494 13.9935C12.0896 12.8125 14.386 13.9935 14.386 13.9935L16.6823 15.7027L25.9333 22.5884L35.1843 15.6634L37.415 13.9935C37.415 13.9935 39.1865 12.8782 41.1548 13.9935C43.1231 15.1089 42.795 16.8147 42.795 16.8147V19.5704V35.448C42.795 35.448 42.8499 37.1438 42.2046 37.8755Z" fill="black"/>
<path d="M16.6823 15.7027L25.9333 22.5884L35.1843 15.6634M16.6823 15.7027L14.386 13.9935C14.386 13.9935 12.0896 12.8125 10.4494 13.9935C8.80911 15.1745 9.07155 16.8147 9.07155 16.8147V19.4391M16.6823 15.7027V25.2731M35.1843 15.6634L37.415 13.9935C37.415 13.9935 39.1865 12.8782 41.1548 13.9935C43.1231 15.1089 42.795 16.8147 42.795 16.8147V19.5704M35.1843 15.6634V25.3451M9.07155 19.4391V35.448C9.07155 35.448 9.11164 37.1589 9.79326 37.8755C10.6418 38.7676 12.8769 38.5316 12.8769 38.5316H16.6823V25.2731M9.07155 19.4391L16.6823 25.2731M42.795 19.5704V35.448C42.795 35.448 42.8499 37.1438 42.2046 37.8755C41.3736 38.8177 39.0553 38.5316 39.0553 38.5316H35.1843V25.3451M42.795 19.5704L35.1843 25.3451M35.1843 25.3451L25.9333 32.3643L16.6823 25.2731M26.2614 50.9975C40.3471 50.7937 51.6915 38.3532 50.7995 24.2943C49.9629 11.1085 39.4722 1.19381 26.2614 1.00275C12.8447 0.808716 1.8511 10.9031 1.00154 24.2943C0.0973739 38.5461 11.9824 51.2041 26.2614 50.9975Z" stroke="black"/>
</svg>
