<svg width="82" height="82" viewBox="0 0 82 82" fill="none" xmlns="http://www.w3.org/2000/svg">
<path fill-rule="evenodd" clip-rule="evenodd" d="M41.4932 80.996C64.0304 80.6699 82.1813 60.7652 80.7541 38.2708C79.4156 17.1736 62.6306 1.31009 41.4932 1.0044C20.0265 0.693946 2.43676 16.845 1.07746 38.2708C-0.369202 61.0737 18.6468 81.3266 41.4932 80.996ZM67.0023 60.0008C65.6727 61.5084 61.9634 61.0506 61.9634 61.0506H55.7699V39.9521L40.9683 51.1829L26.1667 39.8369V61.0506H20.0781C20.0781 61.0506 16.5018 61.4282 15.1442 60.0008C14.0536 58.8542 13.9895 56.1167 13.9895 56.1167V30.5026V26.3036C13.9895 26.3036 13.5696 23.6792 16.194 21.7896C18.8184 19.9001 22.4925 21.7896 22.4925 21.7896L26.1667 24.5244L40.9683 35.5415L55.7699 24.4614L59.3391 21.7896C59.3391 21.7896 62.1734 20.005 65.3227 21.7896C68.4719 23.5742 67.9471 26.3036 67.9471 26.3036V30.7126V56.1167C67.9471 56.1167 68.0349 58.8301 67.0023 60.0008Z" fill="#91B5F5"/>
<path d="M26.1667 24.5244L40.9683 35.5415L55.7699 24.4614M26.1667 24.5244L22.4925 21.7896C22.4925 21.7896 18.8184 19.9001 16.194 21.7896C13.5696 23.6792 13.9895 26.3036 13.9895 26.3036V30.5026M26.1667 24.5244V39.8369M55.7699 24.4614L59.3391 21.7896C59.3391 21.7896 62.1734 20.005 65.3227 21.7896C68.4719 23.5742 67.9471 26.3036 67.9471 26.3036V30.7126M55.7699 24.4614V39.9521M13.9895 30.5026V56.1167C13.9895 56.1167 14.0536 58.8542 15.1442 60.0008C16.5018 61.4282 20.0781 61.0506 20.0781 61.0506H26.1667V39.8369M13.9895 30.5026L26.1667 39.8369M67.9471 30.7126V56.1167C67.9471 56.1167 68.0349 58.8301 67.0023 60.0008C65.6727 61.5084 61.9634 61.0506 61.9634 61.0506H55.7699V39.9521M67.9471 30.7126L55.7699 39.9521M55.7699 39.9521L40.9683 51.1829L26.1667 39.8369M41.4932 80.996C64.0304 80.6699 82.1813 60.7652 80.7541 38.2708C79.4156 17.1736 62.6306 1.31009 41.4932 1.0044C20.0265 0.693946 2.43676 16.845 1.07746 38.2708C-0.369202 61.0737 18.6468 81.3266 41.4932 80.996Z" stroke="#91B5F5"/>
</svg>
