<svg width="50" height="50" viewBox="0 0 50 50" fill="none" xmlns="http://www.w3.org/2000/svg">
<path fill-rule="evenodd" clip-rule="evenodd" d="M0.0765748 29.0973C5.0037 59.2079 42.7022 53.104 43.7971 33.9428C38.3224 42.1548 28.5447 43.3314 22.5226 39.4992C17.0479 34.572 19.2378 28.0024 30.7346 25.2651C43.3262 23.0753 47.1584 9.93613 36.7567 3.91399C23.6175 -4.84541 -1.56587 0.0817738 0.0765748 29.0973ZM13.2157 9.38866C8.83595 18.6956 11.5733 31.2872 17.5954 36.7619C16.5004 30.7398 17.0479 26.9075 28.5447 17.6006C37.8516 7.74627 20.8802 -4.29794 13.2157 9.38866Z" fill="#482684"/>
<path d="M40.6367 26.7432C43.4104 26.0438 44.3615 25.133 44.8794 22.5005C45.4724 25.1768 46.296 26.2073 49.122 26.7432C46.339 27.5571 45.4608 28.5235 44.8794 30.9858C44.1199 28.5349 43.4697 27.3591 40.6367 26.7432Z" fill="#C9378C"/>
</svg>
