<svg width="53" height="50" viewBox="0 0 53 50" fill="none" xmlns="http://www.w3.org/2000/svg">
<path fill-rule="evenodd" clip-rule="evenodd" d="M28.0796 49.9558C41.7021 49.1838 52.0515 39.2043 52.6629 26.1187C53.304 12.3984 42.3629 0.85169 28.0796 0.0418935C12.9635 -0.81512 -0.265203 11.5983 0.412916 26.1187C1.0631 40.0409 13.5863 50.7772 28.0796 49.9558ZM34.2463 9.16076H26.8296H18.8296C18.8296 9.16076 14.7257 10.0817 12.9129 11.8004C11.2457 13.3811 10.1629 16.9198 10.1629 16.9198V32.278C10.1629 32.278 10.8068 36.0709 12.4129 37.7973C14.09 39.6 18.1629 40.5969 18.1629 40.5969H35.3296C35.3296 40.5969 39.3323 39.6067 40.9129 37.7973C42.4338 36.0563 42.8296 32.278 42.8296 32.278V16.5199C42.8296 16.5199 41.5588 12.7729 39.6629 11.2405C37.9202 9.83192 34.2463 9.16076 34.2463 9.16076Z" fill="black"/>
<path fill-rule="evenodd" clip-rule="evenodd" d="M18.8296 12.3604H34.2463C34.2463 12.3604 37.0822 12.653 38.2463 13.8002C39.2123 14.7523 39.6629 16.9198 39.6629 16.9198V32.278C39.6629 32.278 39.2868 34.7959 38.2463 35.9575C37.2856 37.0299 34.9963 37.7973 34.9963 37.7973H18.8296C18.8296 37.7973 15.9896 37.1923 14.8296 35.9575C13.7531 34.8115 13.3296 32.278 13.3296 32.278V17.7197C13.3296 17.7197 13.94 14.9347 15.2463 13.8002C16.3712 12.8232 18.8296 12.3604 18.8296 12.3604ZM34.9963 24.9988C34.9963 29.395 31.4075 32.9473 26.8296 33.0779C22.1137 33.2124 18.1629 29.5275 18.1629 24.9988C18.1629 20.4702 22.1137 16.7853 26.8296 16.9198C31.4075 17.0504 34.9963 20.6027 34.9963 24.9988ZM37.3296 16.5199C37.3296 15.4596 36.4342 14.6801 35.3296 14.6801C34.225 14.6801 33.4129 15.4596 33.4129 16.5199C33.4129 17.5801 34.225 18.4396 35.3296 18.4396C36.4342 18.4396 37.3296 17.5801 37.3296 16.5199Z" fill="black"/>
<path d="M26.8296 30.1182C29.7508 30.0319 32.0569 27.8041 32.0796 24.9988C32.1024 22.1712 29.7741 19.8865 26.8296 19.7995C23.7931 19.7097 21.2227 22.0829 21.2463 24.9988C21.2696 27.8931 23.8157 30.2073 26.8296 30.1182Z" fill="black"/>
</svg>
