<svg width="51" height="50" viewBox="0 0 51 50" fill="none" xmlns="http://www.w3.org/2000/svg">
<path fill-rule="evenodd" clip-rule="evenodd" d="M0 5.25529V44.7448C0 47.1472 2.01849 50 5.53218 50H44.706C47.9954 50 50.0139 47.8979 50.0139 44.7448V5.25529C50.0139 2.10214 47.6216 9.46135e-05 44.706 4.21199e-05C41.7904 -1.03737e-05 8.59731 -1.75905e-05 5.53218 4.21199e-05C2.46705 0.00010183 -9.12589e-06 2.5527 0 5.25529ZM22.5773 39.4895C22.5773 42.7928 18.2412 43.018 17.1199 39.4895L13.1576 41.967C17.1199 48.8739 27.7357 46.8469 27.2123 39.4895V23.1231H22.5773V39.4895ZM35.8096 35.5856C24.2967 29.2793 37.3048 16.5165 44.706 26.3514L41.1923 28.7538C37.8281 24.024 31.8474 29.4294 39.5476 32.0571C55.3218 38.3634 39.6224 54.1291 29.7542 41.5165L33.7164 39.1892C37.6786 45.7958 47.5468 39.1141 35.8096 35.5856Z" fill="black"/>
</svg>
