<svg width="302" height="300" viewBox="0 0 302 300" fill="none" xmlns="http://www.w3.org/2000/svg">
<path fill-rule="evenodd" clip-rule="evenodd" d="M1.52551e-10 268.469V31.5317C-5.49867e-05 15.3162 14.8649 0.000610982 33.3333 0.000252719C51.8018 -0.000105543 251.802 -6.22421e-05 269.369 0.000252719C286.937 0.000567681 301.351 12.6128 301.351 31.5317V268.469C301.351 287.387 289.189 300 269.369 300H33.3333C12.1621 300 1.52402e-10 282.883 1.52551e-10 268.469ZM49.3333 16.0003C30.8649 16.0006 15.9999 31.3162 16 47.5317V252.469C16 266.883 28.1621 284 49.3333 284H253.369C273.189 284 285.351 271.387 285.351 252.469V47.5317C285.351 28.6128 270.937 16.0006 253.369 16.0003C235.802 15.9999 67.8018 15.9999 49.3333 16.0003Z" fill="#7234BA"/>
<path d="M127.036 216.937C127.036 236.757 100.91 238.108 94.1531 216.937L70.2792 231.802C94.1531 273.243 158.117 261.081 154.964 216.937V118.739H127.036V216.937Z" fill="#7234BA"/>
<path d="M260.369 138.108C215.775 79.0993 137.396 155.676 206.766 193.514C277.486 214.685 218.027 254.775 194.153 215.135L170.279 229.099C229.738 304.775 324.333 210.18 229.288 172.342C182.892 156.577 218.928 124.144 239.198 152.523L260.369 138.108Z" fill="#7234BA"/>
</svg>
