<svg width="80" height="80" viewBox="0 0 80 80" fill="none" xmlns="http://www.w3.org/2000/svg">
<path fill-rule="evenodd" clip-rule="evenodd" d="M41.2588 0.0201769C62.8053 0.701747 79.3854 17.8186 79.9743 39.3677C80.5803 61.5408 63.4291 79.2787 41.2588 79.9795C18.4045 80.702 -0.61013 62.225 0.014987 39.3677C0.623566 17.1152 19.0091 -0.68364 41.2588 0.0201769ZM29.2491 22.6173C29.1182 25.4536 26.7146 27.4354 23.8763 27.516C20.9457 27.5991 18.3221 25.546 18.1875 22.6173C18.0473 19.5647 20.8218 17.1572 23.8763 17.2445C26.8424 17.3292 29.3859 19.6531 29.2491 22.6173ZM28.459 31.4665H18.8196V60.3846H28.459V31.4665ZM63.3819 43.0022C64.1721 29.8863 48.8439 26.8839 43.6291 35.7331V31.4665H33.8318V60.3846H43.6291V44.7404C43.6291 35.7331 54.3747 36.8393 53.9006 44.7404V60.3846H63.3819V43.0022Z" fill="#91B5F5"/>
</svg>
