<svg width="51" height="50" viewBox="0 0 51 50" fill="none" xmlns="http://www.w3.org/2000/svg">
<path fill-rule="evenodd" clip-rule="evenodd" d="M26.179 0.0126106C39.6456 0.438592 50.0082 11.1366 50.3762 24.6048C50.7549 38.463 40.0355 49.5492 26.179 49.9872C11.8951 50.4387 0.010942 38.8906 0.40164 24.6048C0.782002 10.697 12.273 -0.427275 26.179 0.0126106ZM18.673 14.1358C18.5911 15.9085 17.0889 17.1471 15.315 17.1975C13.4834 17.2494 11.8436 15.9662 11.7595 14.1358C11.6718 12.2279 13.4059 10.7233 15.315 10.7778C17.1688 10.8308 18.7585 12.2832 18.673 14.1358ZM18.1791 19.6666H12.1545V37.7404H18.1791V19.6666ZM40.006 26.8763C40.4998 18.6789 30.9197 16.8024 27.6605 22.3332V19.6666H21.5371V37.7404H27.6605V27.9627C27.6605 22.3332 34.3764 23.0245 34.0802 27.9627V37.7404H40.006V26.8763Z" fill="black"/>
</svg>
