<svg width="300" height="282" viewBox="0 0 300 282" fill="none" xmlns="http://www.w3.org/2000/svg">
<path fill-rule="evenodd" clip-rule="evenodd" d="M71 0H300L300 211.251L229 282H0V70.7491L71 0Z" fill="#0B8E74"/>
<path d="M151.65 171.998C152.013 172.722 152.897 173.015 153.623 172.653C154.344 172.294 154.646 171.431 154.31 170.701C152.763 167.337 148.828 158.298 148.918 153.592C148.198 153.801 147.575 153.862 147.077 153.763C145.079 153.364 143.284 152.804 141.672 152.113L151.65 171.998Z" fill="white"/>
<path d="M236 88.6089C236 224.129 236 213.704 66 213.704C66 119.257 70.5838 93.6422 120.606 88.0591V117.646C96.7235 122.341 98.6923 138.635 98.6923 183.733C208.538 183.733 204.615 188.946 204.615 117.277C194.8 117.277 194.693 117.206 186.611 117.142L178.62 117.137V88.0715C195.568 88.2456 213.592 88.6089 236 88.6089Z" fill="white"/>
<path d="M143.154 67.7597C141.846 92.5181 127.462 103.505 127.462 125.095C127.462 129.776 127.462 146.02 141.672 152.113C143.284 152.804 145.079 153.364 147.077 153.763C147.575 153.862 148.198 153.801 148.918 153.592C155.607 151.64 170.615 136.77 170.615 117.277C170.615 95.6865 164.077 89.912 143.154 67.7597Z" fill="white"/>
</svg>
