<svg width="328" height="500" viewBox="0 0 328 500" fill="none" xmlns="http://www.w3.org/2000/svg">
<rect width="327.458" height="500" rx="163.729" fill="black"/>
<path fill-rule="evenodd" clip-rule="evenodd" d="M68.6367 275.276C88.1567 394.567 237.508 370.385 241.846 294.473C220.157 327.006 181.42 331.668 157.562 316.486C135.873 296.966 144.548 270.939 190.096 260.094C239.981 251.418 255.163 199.364 213.954 175.506C161.9 140.804 62.1297 160.324 68.6367 275.276ZM120.69 197.195C103.339 234.067 114.184 283.952 138.042 305.641C133.704 281.783 135.873 266.601 181.42 229.729C218.292 190.689 151.055 142.973 120.69 197.195Z" fill="white"/>
<path d="M229.327 265.95C239.353 263.422 242.791 260.129 244.663 250.613C246.807 260.288 249.784 264.012 260 265.95C249.94 268.892 246.765 272.386 244.663 281.286C241.918 272.427 239.568 268.176 229.327 265.95Z" fill="white"/>
</svg>
