<svg width="145" height="150" viewBox="0 0 145 150" fill="none" xmlns="http://www.w3.org/2000/svg">
<path fill-rule="evenodd" clip-rule="evenodd" d="M39.8337 31.9968C34.1923 20.9995 30.9467 14.6725 31.9442 12.026C36.9246 12.026 39.7929 15.7221 44.7476 22.1067C49.1398 27.7664 55.1716 35.5388 65.7674 44.7219C67.0836 39.3264 68.2313 34.4379 69.263 30.043C73.4692 12.1267 75.7493 2.4143 79.6725 0C82.8458 3.17321 83.0067 11.4197 83.2446 23.6067C83.3729 30.1833 83.5237 37.9073 84.1823 46.6009C89.9714 41.7972 95.0743 36.9531 99.6761 32.5846C109.115 23.6244 116.446 16.6653 123.267 16.16C124.277 20.9584 119.008 28.3025 110.767 39.7889C106.744 45.3953 102.014 51.9886 96.96 59.7544L142.433 55.2447C143.937 55.2447 145.064 56.8592 143.561 57.8754C136.597 62.5825 129.784 65.731 120.422 70.057C115.921 72.1369 110.831 74.4891 104.852 77.4177C110.561 81.1457 115.615 84.1271 120.031 86.7316C129.86 92.5288 136.523 96.4585 140.179 102.597C131.73 103.542 125.031 101.396 115.87 98.4602C110.378 96.7004 104.002 94.6571 95.8325 92.826C98.3436 98.5241 100.83 103.825 103.1 108.665C109.663 122.66 114.42 132.801 112.744 137.548C108.444 136.831 103.08 129.888 95.592 120.193C91.3006 114.637 86.3112 108.178 80.4242 101.47L69.5256 148.447C69.1498 150.326 66.8949 150.701 66.1432 148.447C65.201 146.562 64.0122 131.134 62.5368 111.987C62.2469 108.224 61.9459 104.318 61.6335 100.342C57.4916 103.953 53.98 107.144 50.7255 110.101C42.4632 117.608 35.8578 123.61 24.8037 131.159L22.5488 129.656L48.1042 90.947C37.3969 91.2404 28.3497 91.9917 21.052 92.5977C9.65143 93.5445 2.52052 94.1367 0 92.0744C2.4692 88.1649 7.41697 86.5086 15.7686 83.7128C22.6704 81.4024 31.8969 78.3137 43.9702 72.5321C30.1563 64.5964 21.1119 59.9938 15.0845 56.9264C5.69799 52.1496 3.62802 51.0962 2.25488 46.9767C5.91085 44.6918 8.73325 45.4633 19.338 48.362C26.175 50.2308 36.2468 52.9839 51.8623 56.3721C47.277 46.5066 43.1431 38.4481 39.8337 31.9968ZM54.1172 71.4047V74.0354L20.6698 86.4372L56.7479 82.3033L58.2512 84.1823C52.9632 93.94 48.9932 99.3832 42.1455 108.772L41.7153 109.362L42.8428 110.489C55.6004 97.431 60.5365 93.0447 65.0158 90.947C69.4363 98.392 69.3918 100.364 69.2514 106.582C69.1651 110.407 69.0424 115.841 69.9014 125.146L75.9144 91.3228C79.8594 92.0029 84.7043 96.8217 98.8391 114.623L83.8065 86.4372C92.2888 85.1705 100.87 87.4249 116.502 91.6986C101.31 84.5072 94.183 80.7094 93.2018 75.9144L122.515 61.6335C121.243 61.8649 120 62.0915 118.789 62.3124C100.872 65.5795 89.7473 67.608 89.0679 65.7674C87.8011 64.2906 91.0455 58.6244 95.9733 50.018C96.5324 49.0415 97.1133 48.0271 97.7116 46.9767L82.6791 60.1302C79.7735 56.3022 79.0932 45.6064 77.974 28.0111C77.9151 27.0863 77.8551 26.1424 77.7935 25.1795C77.7052 25.7056 77.618 26.2257 77.5318 26.7397C74.4685 45.0053 72.6723 55.7159 69.1498 59.0028L52.2381 40.9637C53.7464 45.1868 55.3152 48.3809 56.653 51.1047C58.6486 55.1679 60.1302 58.1845 60.1302 62.0093C55.4853 64.1063 45.2366 61.3897 27.715 56.7453C27.2508 56.6222 26.7814 56.4978 26.307 56.3721L54.1172 71.4047Z" fill="white"/>
</svg>
